<?xml version="1.0" encoding="iso-8859-1" standalone="no"?> 
<?xml-stylesheet href="Homework02.css" type="text/css"?> 
<svg xmlns="http://www.w3.org/2000/svg" xmlns:xlink="http://www.w3.org/1999/xlink" width="304.11586pt" height="299.79077pt" viewBox="-152.91624 -148.59116 304.11586 299.79077 "> 
<g transform="translate(0, 151.19962 ) scale(1,-1) translate(0,148.59116 )"> 
                                              </p>
                                              <g>
 <g stroke="rgb(0.0%,0.0%,0.0%)">
 <g fill="rgb(0.0%,0.0%,0.0%)">
 <g stroke-width="0.4pt">
 <g>
 <g>
 <g stroke-width="0.8pt">
 <path d=" M  -142.26372 0.0 L  150.08961 0.0  " style="fill:none"/>
 <g>
 <g transform="matrix(1.0,0.0,0.0,1.0,150.08961,0.0)">
 <g>
 <g stroke-width="0.64pt">
 <g stroke-dasharray="none" stroke-dashoffset="0.0pt">
 <g stroke-linecap="round">
 <g stroke-linejoin="round">
 <path d=" M  -1.55997 2.07996 C  -1.42996 1.29997 0.0 0.12999 0.38998 0.0 C  0.0 -0.12999 -1.42996 -1.29997 -1.55997 -2.07996  " style="fill:none"/>
 </g>
 </g>
 </g>
 </g>
 </g>
  </g>
 </g>
 </g>
 </g>
 <g>
 <g stroke-width="0.8pt">
 <path d=" M  0.0 -142.26372 L  0.0 150.08961  " style="fill:none"/>
 <g>
 <g transform="matrix(0.0,1.0,-1.0,0.0,0.0,150.08961)">
 <g>
 <g stroke-width="0.64pt">
 <g stroke-dasharray="none" stroke-dashoffset="0.0pt">
 <g stroke-linecap="round">
 <g stroke-linejoin="round">
 <path d=" M  -1.55997 2.07996 C  -1.42996 1.29997 0.0 0.12999 0.38998 0.0 C  0.0 -0.12999 -1.42996 -1.29997 -1.55997 -2.07996  " style="fill:none"/>
 </g>
 </g>
 </g>
 </g>
 </g>
  </g>
 </g>
 </g>
 </g>
 <path d=" M  -142.26372 -2.84544 L  -142.26372 2.84544  " style="fill:none"/>
 <path d=" M  -142.26372 0.0  " style="fill:none"/>
 <g>
 <g>
 <g transform="matrix(1.0,0.0,0.0,1.0,-149.58327,-8.68852)">
 <g fill="rgb(0.0%,0.0%,0.0%)">
 <text style="stroke:none" transform="scale(1,-1) translate(7.31955,0)" text-anchor="middle"  font-size="10"> 
 &minus; 5</text> 
</g>
 </g>
 </g>
 </g>
 <path d=" M  -113.81097 -2.84544 L  -113.81097 2.84544  " style="fill:none"/>
 <path d=" M  -113.81097 0.0  " style="fill:none"/>
 <g>
 <g>
 <g transform="matrix(1.0,0.0,0.0,1.0,-121.13052,-8.68852)">
 <g fill="rgb(0.0%,0.0%,0.0%)">
 <text style="stroke:none" transform="scale(1,-1) translate(7.31955,0)" text-anchor="middle"  font-size="10"> 
 &minus; 4</text> 
</g>
 </g>
 </g>
 </g>
 <path d=" M  -85.35823 -2.84544 L  -85.35823 2.84544  " style="fill:none"/>
 <path d=" M  -85.35823 0.0  " style="fill:none"/>
 <g>
 <g>
 <g transform="matrix(1.0,0.0,0.0,1.0,-92.67778,-8.68852)">
 <g fill="rgb(0.0%,0.0%,0.0%)">
 <text style="stroke:none" transform="scale(1,-1) translate(7.31955,0)" text-anchor="middle"  font-size="10"> 
 &minus; 3</text> 
</g>
 </g>
 </g>
 </g>
 <path d=" M  -56.90549 -2.84544 L  -56.90549 2.84544  " style="fill:none"/>
 <path d=" M  -56.90549 0.0  " style="fill:none"/>
 <g>
 <g>
 <g transform="matrix(1.0,0.0,0.0,1.0,-64.22504,-8.68852)">
 <g fill="rgb(0.0%,0.0%,0.0%)">
 <text style="stroke:none" transform="scale(1,-1) translate(7.31955,0)" text-anchor="middle"  font-size="10"> 
 &minus; 2</text> 
</g>
 </g>
 </g>
 </g>
 <path d=" M  -28.45274 -2.84544 L  -28.45274 2.84544  " style="fill:none"/>
 <path d=" M  -28.45274 0.0  " style="fill:none"/>
 <g>
 <g>
 <g transform="matrix(1.0,0.0,0.0,1.0,-35.7723,-8.68852)">
 <g fill="rgb(0.0%,0.0%,0.0%)">
 <text style="stroke:none" transform="scale(1,-1) translate(7.31955,0)" text-anchor="middle"  font-size="10"> 
 &minus; 1</text> 
</g>
 </g>
 </g>
 </g>
 <path d=" M  28.45274 -2.84544 L  28.45274 2.84544  " style="fill:none"/>
 <path d=" M  28.45274 0.0  " style="fill:none"/>
 <g>
 <g>
 <g transform="matrix(1.0,0.0,0.0,1.0,26.32771,-8.68852)">
 <g fill="rgb(0.0%,0.0%,0.0%)">
 <text style="stroke:none" transform="scale(1,-1) translate(2.12503,0)" text-anchor="middle"  font-size="10"> 
1</text> 
</g>
 </g>
 </g>
 </g>
 <path d=" M  56.90549 -2.84544 L  56.90549 2.84544  " style="fill:none"/>
 <path d=" M  56.90549 0.0  " style="fill:none"/>
 <g>
 <g>
 <g transform="matrix(1.0,0.0,0.0,1.0,54.78046,-8.68852)">
 <g fill="rgb(0.0%,0.0%,0.0%)">
 <text style="stroke:none" transform="scale(1,-1) translate(2.12503,0)" text-anchor="middle"  font-size="10"> 
2</text> 
</g>
 </g>
 </g>
 </g>
 <path d=" M  85.35823 -2.84544 L  85.35823 2.84544  " style="fill:none"/>
 <path d=" M  85.35823 0.0  " style="fill:none"/>
 <g>
 <g>
 <g transform="matrix(1.0,0.0,0.0,1.0,83.2332,-8.68852)">
 <g fill="rgb(0.0%,0.0%,0.0%)">
 <text style="stroke:none" transform="scale(1,-1) translate(2.12503,0)" text-anchor="middle"  font-size="10"> 
3</text> 
</g>
 </g>
 </g>
 </g>
 <path d=" M  113.81097 -2.84544 L  113.81097 2.84544  " style="fill:none"/>
 <path d=" M  113.81097 0.0  " style="fill:none"/>
 <g>
 <g>
 <g transform="matrix(1.0,0.0,0.0,1.0,111.68594,-8.68852)">
 <g fill="rgb(0.0%,0.0%,0.0%)">
 <text style="stroke:none" transform="scale(1,-1) translate(2.12503,0)" text-anchor="middle"  font-size="10"> 
4</text> 
</g>
 </g>
 </g>
 </g>
 <path d=" M  142.26372 -2.84544 L  142.26372 2.84544  " style="fill:none"/>
 <path d=" M  142.26372 0.0  " style="fill:none"/>
 <g>
 <g>
 <g transform="matrix(1.0,0.0,0.0,1.0,140.13869,-8.68852)">
 <g fill="rgb(0.0%,0.0%,0.0%)">
 <text style="stroke:none" transform="scale(1,-1) translate(2.12503,0)" text-anchor="middle"  font-size="10"> 
5</text> 
</g>
 </g>
 </g>
 </g>
 <path d=" M  -2.84544 -142.26372 L  2.84544 -142.26372  " style="fill:none"/>
 <path d=" M  0.0 -142.26372  " style="fill:none"/>
 <g>
 <g>
 <g transform="matrix(1.0,0.0,0.0,1.0,-18.17207,-144.4248)">
 <g fill="rgb(0.0%,0.0%,0.0%)">
 <text style="stroke:none" transform="scale(1,-1) translate(7.31955,0)" text-anchor="middle"  font-size="10"> 
 &minus; 5</text> 
</g>
 </g>
 </g>
 </g>
 <path d=" M  -2.84544 -113.81097 L  2.84544 -113.81097  " style="fill:none"/>
 <path d=" M  0.0 -113.81097  " style="fill:none"/>
 <g>
 <g>
 <g transform="matrix(1.0,0.0,0.0,1.0,-18.17207,-115.97206)">
 <g fill="rgb(0.0%,0.0%,0.0%)">
 <text style="stroke:none" transform="scale(1,-1) translate(7.31955,0)" text-anchor="middle"  font-size="10"> 
 &minus; 4</text> 
</g>
 </g>
 </g>
 </g>
 <path d=" M  -2.84544 -85.35823 L  2.84544 -85.35823  " style="fill:none"/>
 <path d=" M  0.0 -85.35823  " style="fill:none"/>
 <g>
 <g>
 <g transform="matrix(1.0,0.0,0.0,1.0,-18.17207,-87.51932)">
 <g fill="rgb(0.0%,0.0%,0.0%)">
 <text style="stroke:none" transform="scale(1,-1) translate(7.31955,0)" text-anchor="middle"  font-size="10"> 
 &minus; 3</text> 
</g>
 </g>
 </g>
 </g>
 <path d=" M  -2.84544 -56.90549 L  2.84544 -56.90549  " style="fill:none"/>
 <path d=" M  0.0 -56.90549  " style="fill:none"/>
 <g>
 <g>
 <g transform="matrix(1.0,0.0,0.0,1.0,-18.17207,-59.06657)">
 <g fill="rgb(0.0%,0.0%,0.0%)">
 <text style="stroke:none" transform="scale(1,-1) translate(7.31955,0)" text-anchor="middle"  font-size="10"> 
 &minus; 2</text> 
</g>
 </g>
 </g>
 </g>
 <path d=" M  -2.84544 -28.45274 L  2.84544 -28.45274  " style="fill:none"/>
 <path d=" M  0.0 -28.45274  " style="fill:none"/>
 <g>
 <g>
 <g transform="matrix(1.0,0.0,0.0,1.0,-18.17207,-30.61383)">
 <g fill="rgb(0.0%,0.0%,0.0%)">
 <text style="stroke:none" transform="scale(1,-1) translate(7.31955,0)" text-anchor="middle"  font-size="10"> 
 &minus; 1</text> 
</g>
 </g>
 </g>
 </g>
 <path d=" M  -2.84544 28.45274 L  2.84544 28.45274  " style="fill:none"/>
 <path d=" M  0.0 28.45274  " style="fill:none"/>
 <g>
 <g>
 <g transform="matrix(1.0,0.0,0.0,1.0,-7.78304,25.87497)">
 <g fill="rgb(0.0%,0.0%,0.0%)">
 <text style="stroke:none" transform="scale(1,-1) translate(2.12503,0)" text-anchor="middle"  font-size="10"> 
1</text> 
</g>
 </g>
 </g>
 </g>
 <path d=" M  -2.84544 56.90549 L  2.84544 56.90549  " style="fill:none"/>
 <path d=" M  0.0 56.90549  " style="fill:none"/>
 <g>
 <g>
 <g transform="matrix(1.0,0.0,0.0,1.0,-7.78304,54.32771)">
 <g fill="rgb(0.0%,0.0%,0.0%)">
 <text style="stroke:none" transform="scale(1,-1) translate(2.12503,0)" text-anchor="middle"  font-size="10"> 
2</text> 
</g>
 </g>
 </g>
 </g>
 <path d=" M  -2.84544 85.35823 L  2.84544 85.35823  " style="fill:none"/>
 <path d=" M  0.0 85.35823  " style="fill:none"/>
 <g>
 <g>
 <g transform="matrix(1.0,0.0,0.0,1.0,-7.78304,82.78046)">
 <g fill="rgb(0.0%,0.0%,0.0%)">
 <text style="stroke:none" transform="scale(1,-1) translate(2.12503,0)" text-anchor="middle"  font-size="10"> 
3</text> 
</g>
 </g>
 </g>
 </g>
 <path d=" M  -2.84544 113.81097 L  2.84544 113.81097  " style="fill:none"/>
 <path d=" M  0.0 113.81097  " style="fill:none"/>
 <g>
 <g>
 <g transform="matrix(1.0,0.0,0.0,1.0,-7.78304,111.2332)">
 <g fill="rgb(0.0%,0.0%,0.0%)">
 <text style="stroke:none" transform="scale(1,-1) translate(2.12503,0)" text-anchor="middle"  font-size="10"> 
4</text> 
</g>
 </g>
 </g>
 </g>
 <path d=" M  -2.84544 142.26372 L  2.84544 142.26372  " style="fill:none"/>
 <path d=" M  0.0 142.26372  " style="fill:none"/>
 <g>
 <g>
 <g transform="matrix(1.0,0.0,0.0,1.0,-7.78304,139.68594)">
 <g fill="rgb(0.0%,0.0%,0.0%)">
 <text style="stroke:none" transform="scale(1,-1) translate(2.12503,0)" text-anchor="middle"  font-size="10"> 
5</text> 
</g>
 </g>
 </g>
 </g>
 <g>
 <g stroke-width="0.8pt">
 <g stroke="rgb(0.0%,0.0%,100.0%)">
 <g fill="rgb(0.0%,0.0%,100.0%)">
 <path d=" M  -113.69379 141.56264 C  -113.19144 138.55789 -113.19144 138.55789 -112.9535 137.14459 C  -112.71558 135.7313 -112.33398 133.47653 -112.09605 132.07758 C  -111.85812 130.67862 -111.47653 128.44643 -111.2386 127.0618 C  -111.00067 125.67717 -110.61908 123.46838 -110.38115 122.0981 C  -110.14322 120.72781 -109.76163 118.54161 -109.5237 117.18565 C  -109.28577 115.8297 -108.90416 113.66684 -108.66623 112.32529 C  -108.4283 110.98373 -108.0467 108.84383 -107.80878 107.5166 C  -107.57085 106.18938 -107.18925 104.07245 -106.95132 102.75957 C  -106.7134 101.44669 -106.3318 99.3528 -106.09387 98.0542 C  -105.85594 96.7556 -105.47435 94.68434 -105.23642 93.40007 C  -104.99849 92.1158 -104.6169 90.0679 -104.37897 88.79803 C  -104.14104 87.52817 -103.75943 85.50319 -103.5215 84.24765 C  -103.28357 82.99211 -102.90198 80.99014 -102.66405 79.74895 C  -102.42612 78.50775 -102.04453 76.52878 -101.8066 75.30191 C  -101.56866 74.07504 -101.18707 72.11905 -100.94914 70.90652 C  -100.71121 69.694 -100.32962 67.76099 -100.09169 66.5628 C  -99.85376 65.36462 -99.47217 63.45456 -99.23424 62.27077 C  -98.9963 61.08698 -98.6147 59.20026 -98.37677 58.0308 C  -98.13884 56.86136 -97.75725 54.99727 -97.51932 53.84209 C  -97.28139 52.6869 -96.8998 50.84587 -96.66187 49.70503 C  -96.42393 48.5642 -96.04234 46.74608 -95.80441 45.61963 C  -95.56648 44.49318 -95.18489 42.69844 -94.94696 41.58633 C  -94.70903 40.47423 -94.32744 38.70212 -94.08951 37.60428 C  -93.85158 36.50644 -93.46997 34.75731 -93.23204 33.67387 C  -92.99411 32.59044 -92.61252 30.86467 -92.37459 29.79558 C  -92.13666 28.72649 -91.75507 27.02327 -91.51714 25.9685 C  -91.2792 24.91374 -90.89761 23.23395 -90.65968 22.19353 C  -90.42175 21.1531 -90.04016 19.49588 -89.80223 18.46979 C  -89.5643 17.4437 -89.18271 15.80989 -88.94478 14.79814 C  -88.70685 13.78639 -88.32524 12.17516 -88.08731 11.17773 C  -87.84938 10.18031 -87.46779 8.59244 -87.22986 7.60942 C  -86.99193 6.6264 -86.61034 5.06151 -86.3724 4.09277 C  -86.13448 3.12404 -85.75288 1.58176 -85.51495 0.62735 C  -85.27702 -0.32706 -84.89543 -1.84596 -84.6575 -2.78596 C  -84.41957 -3.72597 -84.03798 -5.22194 -83.80005 -6.14761 C  -83.56212 -7.07329 -83.18051 -8.54628 -82.94258 -9.45761 C  -82.70465 -10.36894 -82.32306 -11.81894 -82.08513 -12.71594 C  -81.8472 -13.61295 -81.4656 -15.03995 -81.22768 -15.9226 C  -80.98975 -16.80527 -80.60815 -18.20927 -80.37022 -19.0776 C  -80.1323 -19.94594 -79.7507 -21.32695 -79.51277 -22.18094 C  -79.27484 -23.03493 -78.89325 -24.39297 -78.65532 -25.23262 C  -78.41739 -26.07227 -78.03578 -27.4073 -77.79785 -28.23262 C  -77.55992 -29.05794 -77.17833 -30.37 -76.9404 -31.18097 C  -76.70247 -31.99194 -76.32088 -33.28099 -76.08295 -34.07764 C  -75.84502 -34.87428 -75.46342 -36.14035 -75.2255 -36.92265 C  -74.98756 -37.70496 -74.60597 -38.94809 -74.36804 -39.716 C  -74.13011 -40.48392 -73.74852 -41.70369 -73.51059 -42.45726 C  -73.27266 -43.21083 -72.89105 -44.40799 -72.65312 -45.14728 C  -72.41519 -45.88657 -72.0336 -47.06073 -71.79567 -47.78563 C  -71.55774 -48.51053 -71.17615 -49.66133 -70.93822 -50.37189 C  -70.70029 -51.08244 -70.3187 -52.21063 -70.08076 -52.90692 C  -69.84283 -53.60321 -69.46124 -54.70839 -69.22331 -55.39027 C  -68.98538 -56.07216 -68.60379 -57.15399 -68.36586 -57.82155 C  -68.12793 -58.4891 -67.74632 -59.54837 -67.50839 -60.20158 C  -67.27046 -60.8548 -66.88887 -61.89069 -66.65094 -62.52951 C  -66.41301 -63.16833 -66.03142 -64.18124 -65.79349 -64.80579 C  -65.55556 -65.43033 -65.17397 -66.42062 -64.93604 -67.03082 C  -64.6981 -67.64102 -64.31651 -68.6079 -64.07858 -69.20377 C  -63.84065 -69.79964 -63.45906 -70.74396 -63.22113 -71.32549 C  -62.9832 -71.90701 -62.6016 -72.82796 -62.36366 -73.3951 C  -62.12573 -73.96223 -61.74414 -74.86026 -61.50621 -75.41306 C  -61.26828 -75.96585 -60.88669 -76.84087 -60.64876 -77.37933 C  -60.41083 -77.9178 -60.02924 -78.76984 -59.7913 -79.29396 C  -59.55338 -79.81808 -59.17178 -80.64706 -58.93385 -81.1569 C  -58.69592 -81.66675 -58.31433 -82.47313 -58.0764 -82.96864 C  -57.83847 -83.46416 -57.45686 -84.24716 -57.21893 -84.72827 C  -56.981 -85.20938 -56.59941 -85.96945 -56.36148 -86.43623 C  -56.12355 -86.90302 -55.74196 -87.64015 -55.50403 -88.09253 C  -55.2661 -88.5449 -54.8845 -89.25868 -54.64658 -89.69673 C  -54.40865 -90.13478 -54.02705 -90.82593 -53.78912 -91.2497 C  -53.5512 -91.67346 -53.1696 -92.34157 -52.93167 -92.751 C  -52.69374 -93.16045 -52.31213 -93.80556 -52.0742 -94.20065 C  -51.83627 -94.59575 -51.45468 -95.21793 -51.21675 -95.59862 C  -50.97882 -95.97931 -50.59723 -96.57814 -50.3593 -96.9445 C  -50.12137 -97.31087 -49.73978 -97.88707 -49.50185 -98.23915 C  -49.26392 -98.59123 -48.88232 -99.14444 -48.6444 -99.48213 C  -48.40646 -99.81982 -48.02487 -100.34967 -47.78694 -100.67302 C  -47.54901 -100.99637 -47.1674 -101.5036 -46.92947 -101.81267 C  -46.69154 -102.12173 -46.30995 -102.60599 -46.07202 -102.90067 C  -45.83409 -103.19534 -45.4525 -103.65622 -45.21457 -103.93655 C  -44.97664 -104.21689 -44.59505 -104.65521 -44.35712 -104.92122 C  -44.11919 -105.18723 -43.7376 -105.60219 -43.49966 -105.85379 C  -43.26173 -106.1054 -42.88014 -106.49734 -42.64221 -106.73468 C  -42.40428 -106.97202 -42.02267 -107.34135 -41.78474 -107.56435 C  -41.54681 -107.78734 -41.16522 -108.13332 -40.92729 -108.34192 C  -40.68936 -108.55052 -40.30777 -108.8735 -40.06984 -109.06783 C  -39.83191 -109.26215 -39.45032 -109.56253 -39.21239 -109.74251 C  -38.97446 -109.92249 -38.59286 -110.1995 -38.35493 -110.36508 C  -38.117 -110.53067 -37.73541 -110.78474 -37.49748 -110.93599 C  -37.25955 -111.08723 -36.87794 -111.31833 -36.64001 -111.45525 C  -36.40208 -111.59216 -36.0205 -111.80026 -35.78256 -111.92284 C  -35.54463 -112.04541 -35.16304 -112.2305 -34.92511 -112.33875 C  -34.68718 -112.44699 -34.30559 -112.6091 -34.06766 -112.703 C  -33.82973 -112.7969 -33.44814 -112.93604 -33.2102 -113.0156 C  -32.97227 -113.09515 -32.59067 -113.21129 -32.35274 -113.27652 C  -32.1148 -113.34175 -31.73322 -113.43489 -31.49529 -113.48578 C  -31.25735 -113.53667 -30.87576 -113.60683 -30.63783 -113.64339 C  -30.3999 -113.67995 -30.01831 -113.7271 -29.78038 -113.74931 C  -29.54245 -113.77153 -29.16086 -113.79576 -28.92293 -113.80359 C  -28.685 -113.81142 -28.3034 -113.81226 -28.06548 -113.80576 C  -27.82755 -113.79926 -27.44594 -113.77747 -27.20801 -113.7567 C  -26.97008 -113.73593 -26.58849 -113.69115 -26.35056 -113.65598 C  -26.11263 -113.6208 -25.73103 -113.55267 -25.4931 -113.50316 C  -25.25517 -113.45364 -24.87358 -113.36288 -24.63565 -113.2991 C  -24.39772 -113.23532 -24.01613 -113.12157 -23.7782 -113.04338 C  -23.54027 -112.9652 -23.15868 -112.82808 -22.92075 -112.73557 C  -22.68282 -112.64305 -22.30121 -112.48338 -22.06328 -112.37653 C  -21.82535 -112.26967 -21.44376 -112.08662 -21.20583 -111.96538 C  -20.9679 -111.84413 -20.5863 -111.63809 -20.34837 -111.50256 C  -20.11044 -111.36703 -19.72885 -111.13838 -19.49092 -110.98853 C  -19.25299 -110.83867 -18.8714 -110.58665 -18.63347 -110.4224 C  -18.39554 -110.25813 -18.01395 -109.98314 -17.77602 -109.8046 C  -17.53809 -109.62605 -17.15648 -109.32843 -16.91855 -109.13556 C  -16.68062 -108.94269 -16.29903 -108.6217 -16.0611 -108.41443 C  -15.82317 -108.20715 -15.44157 -107.86324 -15.20364 -107.64163 C  -14.96571 -107.42003 -14.58412 -107.05312 -14.34619 -106.81717 C  -14.10826 -106.58122 -13.72667 -106.19127 -13.48874 -105.94106 C  -13.25081 -105.69084 -12.86922 -105.27826 -12.63129 -105.0137 C  -12.39336 -104.74915 -12.01175 -104.3132 -11.77382 -104.03424 C  -11.53589 -103.75528 -11.1543 -103.29642 -10.91637 -103.00313 C  -10.67844 -102.70984 -10.29684 -102.22804 -10.05891 -101.92035 C  -9.82098 -101.61266 -9.43939 -101.10748 -9.20146 -100.78546 C  -8.96353 -100.46344 -8.58194 -99.93565 -8.34401 -99.59935 C  -8.10608 -99.26305 -7.72449 -98.71222 -7.48656 -98.36159 C  -7.24863 -98.01096 -6.86702 -97.43712 -6.62909 -97.07214 C  -6.39116 -96.70717 -6.00957 -96.11035 -5.77164 -95.73103 C  -5.5337 -95.35172 -5.15211 -94.73198 -4.91418 -94.33827 C  -4.67625 -93.94456 -4.29466 -93.30145 -4.05673 -92.8934 C  -3.8188 -92.48535 -3.43721 -91.81963 -3.19928 -91.39731 C  -2.96135 -90.97499 -2.57976 -90.28627 -2.34183 -89.84955 C  -2.1039 -89.41283 -1.72229 -88.70074 -1.48436 -88.2497 C  -1.24643 -87.79865 -0.86484 -87.064 -0.6269 -86.5986 C  -0.38898 -86.13321 -0.0074 -85.37515 0.23053 -84.89542 C  0.46846 -84.41568 0.85005 -83.63506 1.08798 -83.14099 C  1.32591 -82.64693 1.7075 -81.84288 1.94543 -81.33447 C  2.18336 -80.82607 2.56496 -79.99947 2.80289 -79.47673 C  3.04082 -78.954 3.42242 -78.10403 3.66035 -77.5669 C  3.89828 -77.02975 4.27988 -76.15685 4.5178 -75.60538 C  4.75574 -75.05391 5.13733 -74.15796 5.37526 -73.59221 C  5.61319 -73.02646 5.99478 -72.10788 6.23271 -71.5278 C  6.47064 -70.94772 6.85223 -70.00578 7.09016 -69.4113 C  7.3281 -68.81682 7.70969 -67.85196 7.94762 -67.24313 C  8.18555 -66.63431 8.56715 -65.64645 8.80508 -65.0233 C  9.04301 -64.40015 9.4246 -63.3893 9.66254 -62.7518 C  9.90047 -62.1143 10.28206 -61.08047 10.51999 -60.42865 C  10.75792 -59.77682 11.13951 -58.71999 11.37744 -58.05382 C  11.61537 -57.38765 11.99696 -56.30783 12.2349 -55.62733 C  12.47282 -54.94684 12.85442 -53.84401 13.09235 -53.14917 C  13.33028 -52.45433 13.71188 -51.32854 13.94981 -50.61935 C  14.18774 -49.91017 14.56934 -48.76138 14.80727 -48.03787 C  15.0452 -47.31436 15.42679 -46.14258 15.66472 -45.40472 C  15.90265 -44.66687 16.28424 -43.4721 16.52217 -42.71992 C  16.7601 -41.96774 17.1417 -40.75003 17.37962 -39.98344 C  17.61755 -39.21686 17.99915 -37.97578 18.23708 -37.19487 C  18.475 -36.41396 18.85661 -35.15027 19.09454 -34.35507 C  19.33247 -33.55988 19.71407 -32.27318 19.952 -31.4636 C  20.18993 -30.654 20.57152 -29.34396 20.80945 -28.52003 C  21.04738 -27.6961 21.42897 -26.36351 21.6669 -25.52524 C  21.90483 -24.68697 22.28642 -23.33093 22.52435 -22.47833 C  22.76228 -21.62573 23.14388 -20.24716 23.3818 -19.38022 C  23.61974 -18.51328 24.00134 -17.11125 24.23927 -16.22998 C  24.4772 -15.34871 24.8588 -13.92415 25.09673 -13.02853 C  25.33466 -12.13292 25.71625 -10.68498 25.95418 -9.77498 C  26.19211 -8.86497 26.5737 -7.39404 26.81163 -6.46976 C  27.04956 -5.54547 27.43115 -4.05193 27.66908 -3.11331 C  27.90701 -2.1747 28.2886 -0.6578 28.52654 0.29521 C  28.76447 1.24823 29.14607 2.78807 29.384 3.75543 C  29.62193 4.7228 30.00352 6.28568 30.24146 7.2673 C  30.47939 8.24893 30.86098 9.83444 31.0989 10.83041 C  31.33684 11.82639 31.71843 13.43526 31.95636 14.44562 C  32.19429 15.45598 32.57588 17.08778 32.81381 18.11249 C  33.05174 19.13719 33.43333 20.79198 33.67126 21.83101 C  33.9092 22.87004 34.2908 24.54784 34.52873 25.60121 C  34.76666 26.65459 35.14825 28.35535 35.38618 29.42307 C  35.62411 30.49078 36.0057 32.21455 36.24364 33.2966 C  36.48157 34.37865 36.86316 36.1254 37.10109 37.22179 C  37.33902 38.31818 37.72061 40.08786 37.95854 41.19864 C  38.19647 42.30942 38.57806 44.10248 38.816 45.2276 C  39.05392 46.35272 39.43553 48.16838 39.67346 49.30777 C  39.91139 50.44716 40.29298 52.28589 40.53091 53.43962 C  40.76884 54.59335 41.15044 56.455 41.38837 57.62314 C  41.6263 58.79128 42.00789 60.67628 42.24582 61.85875 C  42.48375 63.04121 42.86534 64.94884 43.10327 66.14558 C  43.3412 67.34233 43.7228 69.27296 43.96072 70.4841 C  44.19865 71.69524 44.58026 73.64922 44.81819 74.8747 C  45.05612 76.10017 45.43771 78.07672 45.67564 79.31653 C  45.91357 80.55634 46.29517 82.5563 46.5331 83.81046 C  46.77103 85.0646 47.15262 87.08713 47.39055 88.35562 C  47.62848 89.62411 48.01007 91.67 48.248 92.95288 C  48.48593 94.23576 48.86754 96.30464 49.10547 97.6018 C  49.3434 98.89897 49.72499 100.99048 49.96292 102.30197 C  50.20085 103.61346 50.58244 105.72832 50.82037 107.05421 C  51.0583 108.38011 51.4399 110.51791 51.67783 111.85814 C  51.91576 113.19836 52.29735 115.35922 52.53528 116.71373 C  52.77321 118.06824 53.1548 120.25168 53.39273 121.62053 C  53.63066 122.98938 54.01227 125.19621 54.2502 126.57945 C  54.48813 127.96269 54.86972 130.19244 55.10765 131.59003 C  55.34558 132.98761 55.72717 135.24036 55.9651 136.65227 C  56.20303 138.06418 56.82256 141.76617 56.70525 141.0651  " style="fill:none"/>
 <g>
 <g transform="matrix(-0.16507,0.98744,-0.98744,-0.16507,-113.69377,141.56262)">
 <g>
 <g stroke-width="0.64pt">
 <g stroke-dasharray="none" stroke-dashoffset="0.0pt">
 <g stroke-linecap="round">
 <g stroke-linejoin="round">
 <path d=" M  -1.55997 2.07996 C  -1.42996 1.29997 0.0 0.12999 0.38998 0.0 C  0.0 -0.12999 -1.42996 -1.29997 -1.55997 -2.07996  " style="fill:none"/>
 </g>
 </g>
 </g>
 </g>
 </g>
  </g>
 </g>
 <g>
 <g transform="matrix(0.16524,0.98744,-0.98744,0.16524,56.70523,141.06508)">
 <g>
 <g stroke-width="0.64pt">
 <g stroke-dasharray="none" stroke-dashoffset="0.0pt">
 <g stroke-linecap="round">
 <g stroke-linejoin="round">
 <path d=" M  -1.55997 2.07996 C  -1.42996 1.29997 0.0 0.12999 0.38998 0.0 C  0.0 -0.12999 -1.42996 -1.29997 -1.55997 -2.07996  " style="fill:none"/>
 </g>
 </g>
 </g>
 </g>
 </g>
  </g>
 </g>
 </g>
 </g>
 </g>
 </g>
 <g>
 <g stroke-width="0.8pt">
 <g stroke="rgb(100.0%,50.0%,0.0%)">
 <g fill="rgb(100.0%,50.0%,0.0%)">
 <path d=" M  -84.85617 -113.30893 C  -84.7387 -113.19144 -84.7387 -113.19144 -84.50076 -112.9535 C  -84.26283 -112.71558 -83.88124 -112.33398 -83.64331 -112.09605 C  -83.40538 -111.85812 -83.02379 -111.47653 -82.78586 -111.2386 C  -82.54793 -111.00067 -82.16634 -110.61908 -81.9284 -110.38115 C  -81.69048 -110.14322 -81.30888 -109.76163 -81.07095 -109.5237 C  -80.83302 -109.28577 -80.45142 -108.90416 -80.21349 -108.66623 C  -79.97556 -108.4283 -79.59396 -108.0467 -79.35603 -107.80878 C  -79.1181 -107.57085 -78.73651 -107.18925 -78.49858 -106.95132 C  -78.26065 -106.7134 -77.87906 -106.3318 -77.64113 -106.09387 C  -77.4032 -105.85594 -77.0216 -105.47435 -76.78368 -105.23642 C  -76.54575 -104.99849 -76.16415 -104.6169 -75.92622 -104.37897 C  -75.6883 -104.14104 -75.30669 -103.75943 -75.06876 -103.5215 C  -74.83083 -103.28357 -74.44923 -102.90198 -74.2113 -102.66405 C  -73.97337 -102.42612 -73.59178 -102.04453 -73.35385 -101.8066 C  -73.11592 -101.56866 -72.73433 -101.18707 -72.4964 -100.94914 C  -72.25847 -100.71121 -71.87688 -100.32962 -71.63895 -100.09169 C  -71.40102 -99.85376 -71.01942 -99.47217 -70.7815 -99.23424 C  -70.54356 -98.9963 -70.16196 -98.6147 -69.92403 -98.37677 C  -69.6861 -98.13884 -69.3045 -97.75725 -69.06657 -97.51932 C  -68.82864 -97.28139 -68.44705 -96.8998 -68.20912 -96.66187 C  -67.97119 -96.42393 -67.5896 -96.04234 -67.35167 -95.80441 C  -67.11374 -95.56648 -66.73215 -95.18489 -66.49422 -94.94696 C  -66.25629 -94.70903 -65.8747 -94.32744 -65.63676 -94.08951 C  -65.39883 -93.85158 -65.01723 -93.46997 -64.7793 -93.23204 C  -64.54137 -92.99411 -64.15977 -92.61252 -63.92184 -92.37459 C  -63.68391 -92.13666 -63.30232 -91.75507 -63.06439 -91.51714 C  -62.82646 -91.2792 -62.44487 -90.89761 -62.20694 -90.65968 C  -61.96901 -90.42175 -61.58742 -90.04016 -61.34949 -89.80223 C  -61.11156 -89.5643 -60.72997 -89.18271 -60.49203 -88.94478 C  -60.2541 -88.70685 -59.8725 -88.32524 -59.63457 -88.08731 C  -59.39664 -87.84938 -59.01505 -87.46779 -58.77711 -87.22986 C  -58.53918 -86.99193 -58.1576 -86.61034 -57.91966 -86.3724 C  -57.68173 -86.13448 -57.30014 -85.75288 -57.06221 -85.51495 C  -56.82428 -85.27702 -56.44269 -84.89543 -56.20476 -84.6575 C  -55.96683 -84.41957 -55.58524 -84.03798 -55.3473 -83.80005 C  -55.10938 -83.56212 -54.72777 -83.18051 -54.48984 -82.94258 C  -54.2519 -82.70465 -53.87032 -82.32306 -53.63239 -82.08513 C  -53.39445 -81.8472 -53.01286 -81.4656 -52.77493 -81.22768 C  -52.537 -80.98975 -52.15541 -80.60815 -51.91748 -80.37022 C  -51.67955 -80.1323 -51.29796 -79.7507 -51.06003 -79.51277 C  -50.8221 -79.27484 -50.4405 -78.89325 -50.20258 -78.65532 C  -49.96465 -78.41739 -49.58304 -78.03578 -49.34511 -77.79785 C  -49.10718 -77.55992 -48.72559 -77.17833 -48.48766 -76.9404 C  -48.24973 -76.70247 -47.86813 -76.32088 -47.6302 -76.08295 C  -47.39227 -75.84502 -47.01068 -75.46342 -46.77275 -75.2255 C  -46.53482 -74.98756 -46.15323 -74.60597 -45.9153 -74.36804 C  -45.67737 -74.13011 -45.29578 -73.74852 -45.05785 -73.51059 C  -44.81992 -73.27266 -44.43831 -72.89105 -44.20038 -72.65312 C  -43.96245 -72.41519 -43.58086 -72.0336 -43.34293 -71.79567 C  -43.105 -71.55774 -42.7234 -71.17615 -42.48547 -70.93822 C  -42.24754 -70.70029 -41.86595 -70.3187 -41.62802 -70.08076 C  -41.39009 -69.84283 -41.0085 -69.46124 -40.77057 -69.22331 C  -40.53264 -68.98538 -40.15105 -68.60379 -39.91312 -68.36586 C  -39.67519 -68.12793 -39.29358 -67.74632 -39.05565 -67.50839 C  -38.81772 -67.27046 -38.43613 -66.88887 -38.1982 -66.65094 C  -37.96027 -66.41301 -37.57867 -66.03142 -37.34074 -65.79349 C  -37.10281 -65.55556 -36.72122 -65.17397 -36.48329 -64.93604 C  -36.24536 -64.6981 -35.86377 -64.31651 -35.62584 -64.07858 C  -35.38791 -63.84065 -35.00632 -63.45906 -34.76839 -63.22113 C  -34.53046 -62.9832 -34.14885 -62.6016 -33.91092 -62.36366 C  -33.67299 -62.12573 -33.2914 -61.74414 -33.05347 -61.50621 C  -32.81554 -61.26828 -32.43394 -60.88669 -32.19601 -60.64876 C  -31.95808 -60.41083 -31.57649 -60.02924 -31.33856 -59.7913 C  -31.10063 -59.55338 -30.71904 -59.17178 -30.48111 -58.93385 C  -30.24318 -58.69592 -29.86159 -58.31433 -29.62366 -58.0764 C  -29.38573 -57.83847 -29.00412 -57.45686 -28.76619 -57.21893 C  -28.52826 -56.981 -28.14667 -56.59941 -27.90874 -56.36148 C  -27.6708 -56.12355 -27.28922 -55.74196 -27.05128 -55.50403 C  -26.81335 -55.2661 -26.43176 -54.8845 -26.19383 -54.64658 C  -25.9559 -54.40865 -25.57431 -54.02705 -25.33638 -53.78912 C  -25.09845 -53.5512 -24.71686 -53.1696 -24.47893 -52.93167 C  -24.241 -52.69374 -23.85939 -52.31213 -23.62146 -52.0742 C  -23.38353 -51.83627 -23.00194 -51.45468 -22.764 -51.21675 C  -22.52608 -50.97882 -22.14449 -50.59723 -21.90656 -50.3593 C  -21.66862 -50.12137 -21.28703 -49.73978 -21.0491 -49.50185 C  -20.81117 -49.26392 -20.42958 -48.88232 -20.19165 -48.6444 C  -19.95372 -48.40646 -19.57213 -48.02487 -19.3342 -47.78694 C  -19.09627 -47.54901 -18.71466 -47.1674 -18.47673 -46.92947 C  -18.2388 -46.69154 -17.85721 -46.30995 -17.61928 -46.07202 C  -17.38135 -45.83409 -16.99976 -45.4525 -16.76183 -45.21457 C  -16.5239 -44.97664 -16.1423 -44.59505 -15.90437 -44.35712 C  -15.66644 -44.11919 -15.28485 -43.7376 -15.04692 -43.49966 C  -14.80899 -43.26173 -14.4274 -42.88014 -14.18947 -42.64221 C  -13.95154 -42.40428 -13.56993 -42.02267 -13.332 -41.78474 C  -13.09407 -41.54681 -12.71248 -41.16522 -12.47455 -40.92729 C  -12.23662 -40.68936 -11.85503 -40.30777 -11.6171 -40.06984 C  -11.37917 -39.83191 -10.99757 -39.45032 -10.75964 -39.21239 C  -10.52171 -38.97446 -10.14012 -38.59286 -9.90219 -38.35493 C  -9.66426 -38.117 -9.28267 -37.73541 -9.04474 -37.49748 C  -8.80681 -37.25955 -8.4252 -36.87794 -8.18727 -36.64001 C  -7.94934 -36.40208 -7.56775 -36.0205 -7.32982 -35.78256 C  -7.09189 -35.54463 -6.7103 -35.16304 -6.47237 -34.92511 C  -6.23444 -34.68718 -5.85284 -34.30559 -5.61491 -34.06766 C  -5.37698 -33.82973 -4.99539 -33.44814 -4.75746 -33.2102 C  -4.51953 -32.97227 -4.13792 -32.59067 -3.9 -32.35274 C  -3.66206 -32.1148 -3.28047 -31.73322 -3.04254 -31.49529 C  -2.80461 -31.25735 -2.42302 -30.87576 -2.18509 -30.63783 C  -1.94716 -30.3999 -1.56557 -30.01831 -1.32764 -29.78038 C  -1.0897 -29.54245 -0.70811 -29.16086 -0.47018 -28.92293 C  -0.23225 -28.685 0.14932 -28.3034 0.38725 -28.06548 C  0.62518 -27.82755 1.00679 -27.44594 1.24472 -27.20801 C  1.48265 -26.97008 1.86424 -26.58849 2.10217 -26.35056 C  2.3401 -26.11263 2.7217 -25.73103 2.95963 -25.4931 C  3.19756 -25.25517 3.57915 -24.87358 3.81708 -24.63565 C  4.05501 -24.39772 4.4366 -24.01613 4.67453 -23.7782 C  4.91246 -23.54027 5.29405 -23.15868 5.53198 -22.92075 C  5.76991 -22.68282 6.15152 -22.30121 6.38945 -22.06328 C  6.62738 -21.82535 7.00897 -21.44376 7.2469 -21.20583 C  7.48483 -20.9679 7.86642 -20.5863 8.10435 -20.34837 C  8.34229 -20.11044 8.72388 -19.72885 8.9618 -19.49092 C  9.19974 -19.25299 9.58133 -18.8714 9.81926 -18.63347 C  10.05719 -18.39554 10.43878 -18.01395 10.67671 -17.77602 C  10.91464 -17.53809 11.29625 -17.15648 11.53418 -16.91855 C  11.77211 -16.68062 12.1537 -16.29903 12.39163 -16.0611 C  12.62956 -15.82317 13.01115 -15.44157 13.24908 -15.20364 C  13.48701 -14.96571 13.8686 -14.58412 14.10654 -14.34619 C  14.34447 -14.10826 14.72606 -13.72667 14.96399 -13.48874 C  15.20192 -13.25081 15.58351 -12.86922 15.82144 -12.63129 C  16.05937 -12.39336 16.44098 -12.01175 16.67891 -11.77382 C  16.91684 -11.53589 17.29843 -11.1543 17.53636 -10.91637 C  17.77429 -10.67844 18.15588 -10.29684 18.39381 -10.05891 C  18.63174 -9.82098 19.01334 -9.43939 19.25127 -9.20146 C  19.4892 -8.96353 19.87079 -8.58194 20.10872 -8.34401 C  20.34665 -8.10608 20.72824 -7.72449 20.96617 -7.48656 C  21.2041 -7.24863 21.58571 -6.86702 21.82364 -6.62909 C  22.06157 -6.39116 22.44316 -6.00957 22.68109 -5.77164 C  22.91902 -5.5337 23.30061 -5.15211 23.53854 -4.91418 C  23.77647 -4.67625 24.15807 -4.29466 24.396 -4.05673 C  24.63393 -3.8188 25.01552 -3.43721 25.25345 -3.19928 C  25.49138 -2.96135 25.87297 -2.57976 26.1109 -2.34183 C  26.34883 -2.1039 26.73044 -1.72229 26.96837 -1.48436 C  27.2063 -1.24643 27.58789 -0.86484 27.82582 -0.6269 C  28.06375 -0.38898 28.44534 -0.0074 28.68327 0.23053 C  28.9212 0.46846 29.3028 0.85005 29.54073 1.08798 C  29.77866 1.32591 30.16025 1.7075 30.39818 1.94543 C  30.63611 2.18336 31.0177 2.56496 31.25563 2.80289 C  31.49356 3.04082 31.87517 3.42242 32.1131 3.66035 C  32.35103 3.89828 32.73262 4.27988 32.97055 4.5178 C  33.20848 4.75574 33.59007 5.13733 33.828 5.37526 C  34.06593 5.61319 34.44753 5.99478 34.68546 6.23271 C  34.92339 6.47064 35.30498 6.85223 35.54291 7.09016 C  35.78084 7.3281 36.16243 7.70969 36.40036 7.94762 C  36.63829 8.18555 37.0199 8.56715 37.25783 8.80508 C  37.49576 9.04301 37.87735 9.4246 38.11528 9.66254 C  38.35321 9.90047 38.7348 10.28206 38.97273 10.51999 C  39.21066 10.75792 39.59225 11.13951 39.83018 11.37744 C  40.06812 11.61537 40.4497 11.99696 40.68764 12.2349 C  40.92557 12.47282 41.30716 12.85442 41.54509 13.09235 C  41.78302 13.33028 42.16463 13.71188 42.40256 13.94981 C  42.64049 14.18774 43.02208 14.56934 43.26001 14.80727 C  43.49794 15.0452 43.87953 15.42679 44.11746 15.66472 C  44.3554 15.90265 44.73698 16.28424 44.97491 16.52217 C  45.21284 16.7601 45.59444 17.1417 45.83237 17.37962 C  46.0703 17.61755 46.45189 17.99915 46.68982 18.23708 C  46.92775 18.475 47.30936 18.85661 47.54729 19.09454 C  47.78522 19.33247 48.16681 19.71407 48.40474 19.952 C  48.64267 20.18993 49.02426 20.57152 49.26219 20.80945 C  49.50012 21.04738 49.88171 21.42897 50.11964 21.6669 C  50.35757 21.90483 50.73917 22.28642 50.9771 22.52435 C  51.21503 22.76228 51.59662 23.14388 51.83455 23.3818 C  52.07248 23.61974 52.45409 24.00134 52.69202 24.23927 C  52.92995 24.4772 53.31154 24.8588 53.54947 25.09673 C  53.7874 25.33466 54.16899 25.71625 54.40692 25.95418 C  54.64485 26.19211 55.02644 26.5737 55.26437 26.81163 C  55.5023 27.04956 55.8839 27.43115 56.12183 27.66908 C  56.35976 27.90701 56.74135 28.2886 56.97928 28.52654 C  57.21721 28.76447 57.59882 29.14607 57.83675 29.384 C  58.07468 29.62193 58.45627 30.00352 58.6942 30.24146 C  58.93213 30.47939 59.31372 30.86098 59.55165 31.0989 C  59.78958 31.33684 60.17117 31.71843 60.4091 31.95636 C  60.64703 32.19429 61.02863 32.57588 61.26656 32.81381 C  61.50449 33.05174 61.88608 33.43333 62.12401 33.67126 C  62.36194 33.9092 62.74355 34.2908 62.98148 34.52873 C  63.2194 34.76666 63.601 35.14825 63.83893 35.38618 C  64.07686 35.62411 64.45845 36.0057 64.69638 36.24364 C  64.93431 36.48157 65.3159 36.86316 65.55383 37.10109 C  65.79176 37.33902 66.17336 37.72061 66.41129 37.95854 C  66.64922 38.19647 67.0308 38.57806 67.26874 38.816 C  67.50667 39.05392 67.88828 39.43553 68.1262 39.67346 C  68.36414 39.91139 68.74573 40.29298 68.98366 40.53091 C  69.22159 40.76884 69.60318 41.15044 69.84111 41.38837 C  70.07904 41.6263 70.46063 42.00789 70.69856 42.24582 C  70.9365 42.48375 71.31808 42.86534 71.55602 43.10327 C  71.79395 43.3412 72.17554 43.7228 72.41347 43.96072 C  72.6514 44.19865 73.033 44.58026 73.27094 44.81819 C  73.50887 45.05612 73.89046 45.43771 74.12839 45.67564 C  74.36632 45.91357 74.74791 46.29517 74.98584 46.5331 C  75.22377 46.77103 75.60536 47.15262 75.84329 47.39055 C  76.08122 47.62848 76.46281 48.01007 76.70074 48.248 C  76.93867 48.48593 77.32028 48.86754 77.55821 49.10547 C  77.79614 49.3434 78.17773 49.72499 78.41566 49.96292 C  78.6536 50.20085 79.03519 50.58244 79.27312 50.82037 C  79.51105 51.0583 79.89264 51.4399 80.13057 51.67783 C  80.3685 51.91576 80.75009 52.29735 80.98802 52.53528 C  81.22595 52.77321 81.60754 53.1548 81.84547 53.39273 C  82.0834 53.63066 82.46501 54.01227 82.70294 54.2502 C  82.94087 54.48813 83.32246 54.86972 83.5604 55.10765 C  83.79832 55.34558 84.17992 55.72717 84.41785 55.9651 C  84.65578 56.20303 85.2753 56.82256 84.77325 56.32051  " style="fill:none"/>
 <g>
 <g transform="matrix(-0.70712,-0.7071,0.7071,-0.70712,-84.85617,-113.30891)">
 <g>
 <g stroke-width="0.64pt">
 <g stroke-dasharray="none" stroke-dashoffset="0.0pt">
 <g stroke-linecap="round">
 <g stroke-linejoin="round">
 <path d=" M  -1.55997 2.07996 C  -1.42996 1.29997 0.0 0.12999 0.38998 0.0 C  0.0 -0.12999 -1.42996 -1.29997 -1.55997 -2.07996  " style="fill:none"/>
 </g>
 </g>
 </g>
 </g>
 </g>
  </g>
 </g>
 <g>
 <g transform="matrix(0.7071,0.7071,-0.7071,0.7071,84.77324,56.3205)">
 <g>
 <g stroke-width="0.64pt">
 <g stroke-dasharray="none" stroke-dashoffset="0.0pt">
 <g stroke-linecap="round">
 <g stroke-linejoin="round">
 <path d=" M  -1.55997 2.07996 C  -1.42996 1.29997 0.0 0.12999 0.38998 0.0 C  0.0 -0.12999 -1.42996 -1.29997 -1.55997 -2.07996  " style="fill:none"/>
 </g>
 </g>
 </g>
 </g>
 </g>
  </g>
 </g>
 </g>
 </g>
 </g>
 </g>
 </g>
 </g>
 </g>
 </g>
 </g>
 
                                                                                                           </g> 
</svg> 
